<?xml version="1.0"?>
<svg xmlns="http://www.w3.org/2000/svg" xmlns:xlink="http://www.w3.org/1999/xlink" version="1.1" id="Layer_1" x="0px" y="0px" viewBox="0 0 512.001 512.001" style="enable-background:new 0 0 512.001 512.001;" xml:space="preserve" width="512px" height="512px" class=""><g><g>
	<g>
		<path d="M451.613,51.429h-23.579c-6.559-7.247-14.88-12.868-24.279-16.201v-7.285c0-10.932-8.896-19.825-19.832-19.825    c-5.294,0-10.273,2.061-14.021,5.806c-1.388,1.388-2.543,2.947-3.45,4.626h-42.789v-0.288C323.664,8.194,315.471,0,305.4,0    H169.701c-10.071,0-18.263,8.194-18.263,18.263v0.288h-42.789c-0.907-1.68-2.061-3.238-3.451-4.627    c-3.747-3.744-8.725-5.806-14.019-5.806c-10.936,0-19.832,8.894-19.832,19.825v7.279c-23.081,8.183-39.661,30.223-39.661,56.072    v17.722h118.988V91.295c0-25.844-16.575-47.881-39.663-56.067v-1.02h40.426v1.782c0,10.07,8.193,18.263,18.263,18.263h135.7    c10.071,0,18.263-8.194,18.263-18.263v-1.782h40.426v1.015c-23.082,8.181-39.663,30.222-39.663,56.072v17.722h118.988V91.295    c0-8.619-1.858-16.807-5.171-24.208h13.368c7.195,0,13.047,5.853,13.047,13.048v227.935c0,24.461-19.9,44.362-44.362,44.362    h-28.788v-91.514h-78.285V223.34h-26.682c-3.282-21.179-20.016-37.965-41.165-41.336v-44.296    c27.338,0,49.581-22.231,49.581-49.557V67.29h-15.657v20.862c0,18.691-15.218,33.9-33.924,33.9H229.72    c-18.705,0-33.924-15.207-33.924-33.9V67.29H180.14v20.862c0,27.326,22.242,49.557,49.581,49.557v44.297    c-21.149,3.37-37.884,20.157-41.165,41.336h-26.682v37.577H83.588v209.331h-5.219c-11.511,0-20.876,9.365-20.876,20.876    s9.365,20.876,20.876,20.876h318.359c11.511,0,20.876-9.365,20.876-20.876s-9.365-20.876-20.876-20.876h-5.219v-102.16h28.788    c33.095,0,60.019-26.924,60.019-60.018V80.134C480.318,64.307,467.441,51.429,451.613,51.429z M87.003,27.945    c0-2.298,1.874-4.168,4.175-4.168c1.114,0,2.163,0.435,2.952,1.223c0.457,0.457,1.223,1.447,1.223,2.945v4.035    c-1.385-0.097-2.78-0.164-4.19-0.164c-1.4,0-2.785,0.067-4.161,0.162V27.945z M134.646,85.689    c0.236,1.837,0.371,3.705,0.371,5.605v2.065H47.342v-2.065c0-1.9,0.135-3.768,0.371-5.605H134.646z M129.494,70.033h-76.63    c7.495-13.442,21.857-22.559,38.329-22.559C107.647,47.473,122.002,56.591,129.494,70.033z M308.007,35.99    c0,1.437-1.169,2.606-2.606,2.606h-135.7c-1.437,0-2.606-1.169-2.606-2.606V18.263c0-1.437,1.169-2.606,2.606-2.606h135.7    c1.437,0,2.606,1.169,2.606,2.606V35.99z M379.748,27.945c0-1.111,0.434-2.156,1.221-2.943c0.79-0.789,1.84-1.224,2.954-1.224    c2.303,0,4.175,1.869,4.175,4.168v4.035c-1.386-0.097-2.782-0.164-4.193-0.164c-1.4,0-2.783,0.067-4.157,0.162V27.945z     M383.938,47.473c16.451,0,30.807,9.117,38.299,22.559h-76.629C353.102,56.591,367.464,47.473,383.938,47.473z M427.759,93.359    L427.759,93.359h-87.674v-2.065c0-1.9,0.135-3.768,0.371-5.605h86.933c0.236,1.837,0.371,3.705,0.371,5.605V93.359z     M237.551,197.038c16.085,0,29.58,11.255,33.05,26.302h-66.099C207.969,208.294,221.466,197.038,237.551,197.038z     M177.532,238.997h120.037v21.92H177.532V238.997z M99.247,276.574h276.607v193.674H99.247V276.574z M396.73,485.905    c2.877,0,5.219,2.341,5.219,5.219s-2.341,5.219-5.219,5.219H78.371c-2.878,0-5.219-2.341-5.219-5.219s2.341-5.219,5.219-5.219    H396.73z" data-original="#000000" class="active-path" data-old_color="#000000" fill="#FFFFFF"/>
	</g>
</g><g>
	<g>
		<path d="M237.551,287.297c-47.484,0-86.114,38.631-86.114,86.114c0,47.483,38.63,86.114,86.114,86.114    c47.482,0,86.114-38.631,86.114-86.114C323.664,325.928,285.033,287.297,237.551,287.297z M237.551,443.867    c-38.85,0-70.457-31.606-70.457-70.457c0-38.85,31.606-70.457,70.457-70.457s70.457,31.606,70.457,70.457    C308.007,412.261,276.4,443.867,237.551,443.867z" data-original="#000000" class="active-path" data-old_color="#000000" fill="#FFFFFF"/>
	</g>
</g><g>
	<g>
		<path d="M237.551,334.268c-21.584,0-39.143,17.559-39.143,39.143c0,21.584,17.559,39.143,39.143,39.143    c21.584,0,39.143-17.559,39.143-39.143C276.693,351.827,259.133,334.268,237.551,334.268z M237.551,396.896    c-12.95,0-23.486-10.536-23.486-23.486s10.535-23.485,23.486-23.485c12.949,0,23.486,10.536,23.486,23.485    S250.5,396.896,237.551,396.896z" data-original="#000000" class="active-path" data-old_color="#000000" fill="#FFFFFF"/>
	</g>
</g><g>
	<g>
		<circle cx="237.55" cy="318.61" r="7.829" data-original="#000000" class="active-path" data-old_color="#000000" fill="#FFFFFF"/>
	</g>
</g><g>
	<g>
		<circle cx="237.55" cy="428.209" r="7.828" data-original="#000000" class="active-path" data-old_color="#000000" fill="#FFFFFF"/>
	</g>
</g><g>
	<g>
		<circle cx="210.15" cy="325.948" r="7.827" data-original="#000000" class="active-path" data-old_color="#000000" fill="#FFFFFF"/>
	</g>
</g><g>
	<g>
		<circle cx="264.95" cy="420.871" r="7.827" data-original="#000000" class="active-path" data-old_color="#000000" fill="#FFFFFF"/>
	</g>
</g><g>
	<g>
		<circle cx="190.088" cy="346.01" r="7.827" data-original="#000000" class="active-path" data-old_color="#000000" fill="#FFFFFF"/>
	</g>
</g><g>
	<g>
		<circle cx="285.011" cy="400.809" r="7.827" data-original="#000000" class="active-path" data-old_color="#000000" fill="#FFFFFF"/>
	</g>
</g><g>
	<g>
		<circle cx="182.75" cy="373.409" r="7.828" data-original="#000000" class="active-path" data-old_color="#000000" fill="#FFFFFF"/>
	</g>
</g><g>
	<g>
		<circle cx="292.349" cy="373.409" r="7.828" data-original="#000000" class="active-path" data-old_color="#000000" fill="#FFFFFF"/>
	</g>
</g><g>
	<g>
		<circle cx="190.088" cy="400.809" r="7.827" data-original="#000000" class="active-path" data-old_color="#000000" fill="#FFFFFF"/>
	</g>
</g><g>
	<g>
		<circle cx="285.011" cy="346.01" r="7.827" data-original="#000000" class="active-path" data-old_color="#000000" fill="#FFFFFF"/>
	</g>
</g><g>
	<g>
		<circle cx="210.15" cy="420.871" r="7.827" data-original="#000000" class="active-path" data-old_color="#000000" fill="#FFFFFF"/>
	</g>
</g><g>
	<g>
		<circle cx="264.95" cy="325.948" r="7.827" data-original="#000000" class="active-path" data-old_color="#000000" fill="#FFFFFF"/>
	</g>
</g></g> </svg>
